<svg width="161" height="564" viewBox="0 0 161 564" fill="none" xmlns="http://www.w3.org/2000/svg">
<path d="M12.0656 61.6135V14.2185C12.0656 12.1235 12.8057 10.1143 14.1232 8.63295C15.4407 7.15157 17.2276 6.31934 19.0908 6.31934H54.2168C54.9621 6.31934 55.6769 6.65223 56.2038 7.24478C56.7308 7.83733 57.0269 8.641 57.0269 9.479V66.3529C57.0269 67.1909 56.7308 67.9946 56.2038 68.5872C55.6769 69.1797 54.9621 69.5126 54.2168 69.5126H19.0908C17.2276 69.5126 15.4407 68.6804 14.1232 67.199C12.8057 65.7176 12.0656 63.7084 12.0656 61.6135ZM12.0656 61.6135C12.0656 59.5185 12.8057 57.5093 14.1232 56.0279C15.4407 54.5465 17.2276 53.7143 19.0908 53.7143H57.0269" stroke="#5FC385" stroke-width="2" stroke-linecap="round" stroke-linejoin="round"/>
<path d="M26.116 30.0168L31.7361 36.3362L42.9765 23.6975" stroke="#5FC385" stroke-width="2" stroke-linecap="round" stroke-linejoin="round"/>
<path d="M26.116 532.403C25.554 529.244 24.1489 527.032 21.9009 524.504C19.0908 521.661 17.6857 517.553 17.6857 513.445C17.6857 508.417 19.4621 503.595 22.6241 500.04C25.786 496.485 30.0745 494.487 34.5462 494.487C39.0179 494.487 43.3065 496.485 46.4684 500.04C49.6304 503.595 51.4067 508.417 51.4067 513.445C51.4067 516.605 50.8447 520.397 47.1916 524.504C45.2246 526.716 43.5385 529.244 42.9765 532.403" stroke="#5FC385" stroke-width="2" stroke-linecap="round" stroke-linejoin="round"/>
<path d="M42.9764 545.042H26.1159" stroke="#5FC385" stroke-width="2" stroke-linecap="round" stroke-linejoin="round"/>
<path d="M40.1664 557.681H28.926" stroke="#5FC385" stroke-width="2" stroke-linecap="round" stroke-linejoin="round"/>
<path d="M144.14 283.58V283.612M144.14 270.941V270.973M110.419 283.58V283.612M110.419 270.941V270.973M121.659 299.378V283.58C121.659 281.904 122.251 280.297 123.305 279.111C124.359 277.926 125.788 277.261 127.279 277.261C128.77 277.261 130.199 277.926 131.253 279.111C132.307 280.297 132.899 281.904 132.899 283.58V299.378M124.469 261.462C124.469 263.207 125.727 264.622 127.279 264.622C128.831 264.622 130.089 263.207 130.089 261.462C130.089 259.717 128.831 258.303 127.279 258.303C125.727 258.303 124.469 259.717 124.469 261.462ZM99.1782 293.059V255.143H110.419L127.279 242.504L144.14 255.143H155.38V293.059C155.38 294.735 154.788 296.342 153.734 297.527C152.68 298.712 151.25 299.378 149.76 299.378H104.798C103.308 299.378 101.878 298.712 100.824 297.527C99.7703 296.342 99.1782 294.735 99.1782 293.059Z" stroke="#5FC385" stroke-width="2" stroke-linecap="round" stroke-linejoin="round"/>
<path d="M72.5383 78.2017L96.0306 125.597" stroke="#5FC385" stroke-width="3" stroke-linecap="round"/>
<path d="M110.981 161.143L123.795 210.908" stroke="#5FC385" stroke-width="3" stroke-linecap="round"/>
<path d="M106.709 388.639L119.523 338.874" stroke="#5FC385" stroke-width="3" stroke-linecap="round"/>
<path d="M68.2672 471.58L91.7595 424.185" stroke="#5FC385" stroke-width="3" stroke-linecap="round"/>
</svg>
