<svg width="159" height="564" viewBox="0 0 159 564" fill="none" xmlns="http://www.w3.org/2000/svg">
<path d="M16.8605 283.58V283.612M16.8605 270.941V270.973M50.5815 283.58V283.612M50.5815 270.941V270.973M39.3412 299.378V283.58C39.3412 281.904 38.7491 280.297 37.6951 279.111C36.6411 277.926 35.2116 277.261 33.721 277.261C32.2305 277.261 30.8009 277.926 29.747 279.111C28.693 280.297 28.1008 281.904 28.1008 283.58V299.378M36.5311 261.462C36.5311 263.207 35.273 264.622 33.721 264.622C32.1691 264.622 30.9109 263.207 30.9109 261.462C30.9109 259.717 32.1691 258.303 33.721 258.303C35.273 258.303 36.5311 259.717 36.5311 261.462ZM61.8219 293.059V255.143H50.5815L33.721 242.504L16.8605 255.143H5.62018V293.059C5.62018 294.735 6.2123 296.342 7.26629 297.527C8.32027 298.712 9.74978 299.378 11.2403 299.378H56.2017C57.6922 299.378 59.1218 298.712 60.1757 297.527C61.2297 296.342 61.8219 294.735 61.8219 293.059Z" stroke="#5FC385" stroke-width="2" stroke-linecap="round" stroke-linejoin="round"/>
<path d="M132.776 532.403C133.338 529.244 134.744 527.032 136.992 524.504C139.802 521.661 141.207 517.553 141.207 513.445C141.207 508.417 139.43 503.595 136.268 500.04C133.106 496.485 128.818 494.487 124.346 494.487C119.875 494.487 115.586 496.485 112.424 500.04C109.262 503.595 107.486 508.417 107.486 513.445C107.486 516.605 108.048 520.397 111.701 524.504C113.668 526.716 115.354 529.244 115.916 532.403" stroke="#5FC385" stroke-width="2" stroke-linecap="round" stroke-linejoin="round"/>
<path d="M115.916 545.042H132.777" stroke="#5FC385" stroke-width="2" stroke-linecap="round" stroke-linejoin="round"/>
<path d="M118.726 557.681H129.966" stroke="#5FC385" stroke-width="2" stroke-linecap="round" stroke-linejoin="round"/>
<path d="M101.866 61.6135V14.2185C101.866 12.1235 102.606 10.1143 103.923 8.63295C105.241 7.15157 107.028 6.31934 108.891 6.31934H144.017C144.762 6.31934 145.477 6.65223 146.004 7.24478C146.531 7.83733 146.827 8.641 146.827 9.479V66.3529C146.827 67.1909 146.531 67.9946 146.004 68.5872C145.477 69.1797 144.762 69.5126 144.017 69.5126H108.891C107.028 69.5126 105.241 68.6804 103.923 67.199C102.606 65.7176 101.866 63.7084 101.866 61.6135ZM101.866 61.6135C101.866 59.5185 102.606 57.5093 103.923 56.0279C105.241 54.5465 107.028 53.7143 108.891 53.7143H146.827" stroke="#5FC385" stroke-width="2" stroke-linecap="round" stroke-linejoin="round"/>
<path d="M115.916 30.0168L121.536 36.3362L132.777 23.6975" stroke="#5FC385" stroke-width="2" stroke-linecap="round" stroke-linejoin="round"/>
<path d="M88.5176 471.58L65.3344 424.185" stroke="#5FC385" stroke-width="3" stroke-linecap="round"/>
<path d="M50.5815 388.639L37.9362 338.874" stroke="#5FC385" stroke-width="3" stroke-linecap="round"/>
<path d="M84.3026 78.2017L61.1194 125.597" stroke="#5FC385" stroke-width="3" stroke-linecap="round"/>
<path d="M46.3664 161.143L33.721 210.908" stroke="#5FC385" stroke-width="3" stroke-linecap="round"/>
</svg>
